<?xml version="1.0" encoding="UTF-8"?>
<svg xmlns="http://www.w3.org/2000/svg" width="512" height="512" viewBox="0 0 512 512" fill="none">
  <defs>
    <radialGradient id="gGlow" cx="0" cy="0" r="1" gradientUnits="userSpaceOnUse" gradientTransform="translate(300 210) rotate(110) scale(210 220)">
      <stop offset="0" stop-color="#22D3EE" stop-opacity="0.75"/>
      <stop offset="0.55" stop-color="#22D3EE" stop-opacity="0.22"/>
      <stop offset="1" stop-color="#22D3EE" stop-opacity="0"/>
    </radialGradient>
    <linearGradient id="gLamp" x1="140" y1="330" x2="372" y2="170" gradientUnits="userSpaceOnUse">
      <stop offset="0" stop-color="#0B1020"/>
      <stop offset="1" stop-color="#111A33"/>
    </linearGradient>
    <filter id="fSoft" x="-20%" y="-20%" width="140%" height="140%" color-interpolation-filters="sRGB">
      <feGaussianBlur stdDeviation="10" result="b"/>
      <feColorMatrix in="b" type="matrix" values="1 0 0 0 0  0 1 0 0 0  0 0 1 0 0  0 0 0 0.55 0" result="bb"/>
      <feMerge>
        <feMergeNode in="bb"/>
        <feMergeNode in="SourceGraphic"/>
      </feMerge>
    </filter>
  </defs>

  <!-- Background glow -->
  <circle cx="300" cy="210" r="210" fill="url(#gGlow)"/>

  <!-- Small star -->
  <path d="M376 122l7 18 19 7-19 7-7 18-7-18-19-7 19-7 7-18z" fill="#F5C542" opacity="0.95"/>

  <!-- Speech-bubble hint (top-right) -->
  <path filter="url(#fSoft)" d="M326 142c0-20 16-36 36-36h20c20 0 36 16 36 36v16c0 20-16 36-36 36h-10l-18 16c-3 3-8 1-8-4v-12c-12-5-20-17-20-32v-20z" fill="#0B1020" opacity="0.92"/>
  <path d="M360 136h50" stroke="#22D3EE" stroke-width="10" stroke-linecap="round" opacity="0.95"/>
  <path d="M360 162h34" stroke="#22D3EE" stroke-width="10" stroke-linecap="round" opacity="0.7"/>

  <!-- Lamp body -->
  <path d="M164 336c0-22 18-40 40-40h108c45 0 82-12 108-34 7-6 18-2 18 8v10c0 66-70 120-156 120H224c-22 0-40-18-40-40v-24z" fill="url(#gLamp)"/>

  <!-- Lamp spout -->
  <path d="M322 294c26-10 50-26 68-48 8-10 23-13 34-5 12 8 15 25 5 36-29 34-68 58-110 70" fill="#0B1020"/>

  <!-- Lamp base -->
  <path d="M128 374c0-18 14-32 32-32h170c18 0 32 14 32 32v12c0 18-14 32-32 32H160c-18 0-32-14-32-32v-12z" fill="#0B1020"/>
  <path d="M164 374h206" stroke="#22D3EE" stroke-width="10" stroke-linecap="round" opacity="0.55"/>

  <!-- Handle -->
  <path d="M178 304c-44 0-80 34-80 78 0 44 36 78 80 78h12c10 0 18-8 18-18s-8-18-18-18h-12c-24 0-44-18-44-42s20-42 44-42h16c10 0 18-8 18-18s-8-18-18-18h-16z" fill="#0B1020"/>
</svg>
